<svg width="32" height="32" viewBox="0 0 32 32" fill="none" xmlns="http://www.w3.org/2000/svg">
<circle cx="16" cy="16" r="16" fill="white"/>
<path fill-rule="evenodd" clip-rule="evenodd" d="M19.9594 5.71603C19.9594 6.69124 19.5287 7.66646 18.9208 8.3701C18.2747 9.14786 17.1601 9.72803 16.2734 9.72815C16.1721 9.72815 16.0707 9.71572 16.0074 9.70341C15.9948 9.65405 15.9694 9.50584 15.9694 9.35774C15.9694 8.3701 16.4888 7.39489 17.0461 6.77766C17.7554 5.97529 18.9334 5.37037 19.9214 5.33331C19.9468 5.44447 19.9594 5.58025 19.9594 5.71603ZM23.444 11.8591C23.4686 11.8433 23.4855 11.8325 23.4934 11.8265C22.1761 9.98729 20.1747 9.9378 19.6173 9.93768C18.7656 9.93768 18.0033 10.2322 17.3624 10.4798C16.8977 10.6593 16.4968 10.8142 16.172 10.8142C15.8137 10.8142 15.4035 10.6526 14.9456 10.4722C14.3676 10.2446 13.7137 9.98705 12.9928 9.98705C10.5609 9.98705 8.0909 11.9499 8.0909 15.6533C8.0909 17.9617 9.00287 20.3936 10.1302 21.9614C11.1054 23.2946 11.9541 24.3809 13.1701 24.3809C13.7468 24.3809 14.1696 24.206 14.6142 24.0221C15.1072 23.8182 15.6269 23.6032 16.4128 23.6032C17.2063 23.6032 17.6806 23.805 18.1382 23.9997C18.5644 24.1811 18.976 24.3562 19.6174 24.3562C20.9473 24.3562 21.8214 23.1835 22.6573 22.0107C23.5947 20.6775 23.9874 19.369 24 19.3073C23.924 19.2827 21.378 18.2827 21.378 15.4558C21.378 13.1805 23.1123 12.0712 23.444 11.8591Z" fill="black"/>
</svg>
