<svg width="32" height="33" viewBox="0 0 32 33" fill="none" xmlns="http://www.w3.org/2000/svg">
<circle cx="16" cy="16.5" r="16" fill="white"/>
<path d="M26 16.7401C26 16.0378 25.9384 15.3712 25.8328 14.7223H15.891V18.7312H21.5833C21.3282 20.0467 20.5804 21.1578 19.4718 21.9134V24.5801H22.8679C24.8562 22.7223 26 19.9845 26 16.7401Z" fill="#4285F4"/>
<path d="M15.891 27.1668C18.7415 27.1668 21.1258 26.2068 22.8678 24.5801L19.4718 21.9134C18.5216 22.5534 17.3162 22.9445 15.891 22.9445C13.1372 22.9445 10.8057 21.069 9.96985 18.5356H6.46822V21.2823C8.20144 24.7668 11.7647 27.1668 15.891 27.1668Z" fill="#34A853"/>
<path d="M9.96987 18.5356C9.74992 17.8956 9.63555 17.2111 9.63555 16.5C9.63555 15.7889 9.75872 15.1044 9.96987 14.4644V11.7178H6.46824C5.7468 13.1578 5.33329 14.7756 5.33329 16.5C5.33329 18.2244 5.7468 19.8422 6.46824 21.2822L9.96987 18.5356Z" fill="#FBBC05"/>
<path d="M15.891 10.0556C17.4482 10.0556 18.8383 10.5978 19.9381 11.6556L22.947 8.6156C21.1258 6.89115 18.7415 5.83337 15.891 5.83337C11.7647 5.83337 8.20144 8.23337 6.46822 11.7178L9.96985 14.4645C10.8057 11.9312 13.1372 10.0556 15.891 10.0556Z" fill="#EA4335"/>
</svg>
